<svg width="523" height="135" viewBox="0 0 523 135" fill="none" xmlns="http://www.w3.org/2000/svg">
<rect width="523" height="135" fill="black" fill-opacity="0.2"/>
<path d="M168.963 65.0078C168.903 64.4496 168.652 64.0149 168.209 63.7038C167.77 63.3928 167.199 63.2372 166.496 63.2372C166.002 63.2372 165.578 63.3118 165.224 63.4609C164.87 63.6101 164.6 63.8125 164.412 64.0682C164.225 64.3239 164.129 64.6158 164.124 64.9439C164.124 65.2166 164.186 65.4531 164.31 65.6534C164.438 65.8537 164.61 66.0241 164.828 66.1648C165.045 66.3011 165.286 66.4162 165.55 66.5099C165.814 66.6037 166.08 66.6825 166.349 66.7464L167.576 67.0533C168.07 67.1683 168.546 67.3239 169.002 67.5199C169.462 67.7159 169.873 67.9631 170.235 68.2614C170.602 68.5597 170.891 68.9197 171.104 69.3416C171.318 69.7635 171.424 70.2578 171.424 70.8246C171.424 71.5916 171.228 72.267 170.836 72.8509C170.444 73.4304 169.877 73.8842 169.136 74.2124C168.399 74.5362 167.506 74.6982 166.457 74.6982C165.439 74.6982 164.555 74.5405 163.805 74.2251C163.059 73.9098 162.475 73.4496 162.053 72.8445C161.636 72.2393 161.41 71.5021 161.376 70.6328H163.709C163.743 71.0888 163.884 71.468 164.131 71.7706C164.378 72.0732 164.7 72.299 165.096 72.4482C165.497 72.5973 165.944 72.6719 166.438 72.6719C166.954 72.6719 167.406 72.5952 167.793 72.4418C168.185 72.2841 168.492 72.0668 168.714 71.7898C168.935 71.5085 169.048 71.1804 169.053 70.8054C169.048 70.4645 168.948 70.1832 168.752 69.9616C168.556 69.7358 168.281 69.5483 167.928 69.3991C167.578 69.2457 167.169 69.1094 166.7 68.9901L165.211 68.6065C164.133 68.3295 163.281 67.9098 162.654 67.3473C162.032 66.7805 161.721 66.0284 161.721 65.0909C161.721 64.3196 161.93 63.6442 162.347 63.0646C162.769 62.4851 163.342 62.0355 164.067 61.7159C164.791 61.392 165.612 61.2301 166.528 61.2301C167.457 61.2301 168.271 61.392 168.97 61.7159C169.673 62.0355 170.225 62.4808 170.625 63.0518C171.026 63.6186 171.232 64.2706 171.245 65.0078H168.963ZM177.783 74.6918C176.798 74.6918 175.948 74.4872 175.232 74.0781C174.521 73.6648 173.973 73.081 173.589 72.3267C173.206 71.5682 173.014 70.6754 173.014 69.6484C173.014 68.6385 173.206 67.7521 173.589 66.9893C173.977 66.2223 174.518 65.6257 175.213 65.1996C175.908 64.7692 176.724 64.554 177.661 64.554C178.266 64.554 178.837 64.652 179.374 64.848C179.915 65.0398 180.393 65.3381 180.806 65.7429C181.224 66.1477 181.552 66.6634 181.79 67.2898C182.029 67.9119 182.148 68.6534 182.148 69.5142V70.2237H174.101V68.6641H179.93C179.926 68.2209 179.83 67.8267 179.643 67.4815C179.455 67.1321 179.193 66.8572 178.856 66.657C178.524 66.4567 178.136 66.3565 177.693 66.3565C177.22 66.3565 176.805 66.4716 176.447 66.7017C176.089 66.9276 175.81 67.2259 175.609 67.5966C175.413 67.9631 175.313 68.3658 175.309 68.8047V70.1662C175.309 70.7372 175.413 71.2273 175.622 71.6364C175.831 72.0412 176.123 72.3523 176.498 72.5696C176.873 72.7827 177.312 72.8892 177.815 72.8892C178.151 72.8892 178.456 72.8423 178.729 72.7486C179.001 72.6506 179.238 72.5078 179.438 72.3203C179.638 72.1328 179.79 71.9006 179.892 71.6236L182.052 71.8665C181.916 72.4375 181.656 72.9361 181.273 73.3622C180.893 73.7841 180.408 74.1122 179.815 74.3466C179.223 74.5767 178.545 74.6918 177.783 74.6918ZM188.389 74.6918C187.408 74.6918 186.567 74.4766 185.864 74.0462C185.165 73.6158 184.626 73.0213 184.247 72.2628C183.872 71.5 183.684 70.6222 183.684 69.6293C183.684 68.6321 183.876 67.7521 184.259 66.9893C184.643 66.2223 185.184 65.6257 185.883 65.1996C186.586 64.7692 187.417 64.554 188.376 64.554C189.173 64.554 189.878 64.701 190.492 64.995C191.109 65.2848 191.602 65.696 191.968 66.2287C192.335 66.7571 192.543 67.375 192.595 68.0824H190.383C190.293 67.6094 190.08 67.2152 189.744 66.8999C189.411 66.5803 188.966 66.4205 188.408 66.4205C187.935 66.4205 187.519 66.5483 187.161 66.804C186.803 67.0554 186.524 67.4176 186.324 67.8906C186.128 68.3636 186.03 68.9304 186.03 69.5909C186.03 70.2599 186.128 70.8352 186.324 71.3168C186.52 71.794 186.795 72.1626 187.149 72.4226C187.506 72.6783 187.926 72.8061 188.408 72.8061C188.749 72.8061 189.053 72.7422 189.322 72.6143C189.595 72.4822 189.823 72.2926 190.006 72.0455C190.189 71.7983 190.315 71.4979 190.383 71.1442H192.595C192.539 71.8388 192.335 72.4545 191.981 72.9915C191.627 73.5241 191.146 73.9418 190.536 74.2443C189.927 74.5426 189.211 74.6918 188.389 74.6918ZM200.752 70.3707V64.6818H203.066V74.5H200.823V72.755H200.72C200.499 73.3047 200.134 73.7543 199.627 74.1037C199.125 74.4531 198.505 74.6278 197.767 74.6278C197.124 74.6278 196.555 74.4851 196.061 74.1996C195.571 73.9098 195.187 73.4901 194.91 72.9403C194.633 72.3864 194.495 71.7173 194.495 70.9332V64.6818H196.809V70.5753C196.809 71.1974 196.979 71.6918 197.32 72.0582C197.661 72.4247 198.108 72.608 198.662 72.608C199.003 72.608 199.333 72.5249 199.653 72.3587C199.973 72.1925 200.235 71.9453 200.439 71.6172C200.648 71.2848 200.752 70.8693 200.752 70.3707ZM205.446 74.5V64.6818H207.689V66.3182H207.792C207.971 65.7514 208.277 65.3146 208.712 65.0078C209.151 64.6967 209.652 64.5412 210.214 64.5412C210.342 64.5412 210.485 64.5476 210.642 64.5604C210.804 64.5689 210.939 64.5838 211.045 64.6051V66.7337C210.947 66.6996 210.792 66.6697 210.579 66.6442C210.37 66.6143 210.167 66.5994 209.971 66.5994C209.549 66.5994 209.17 66.6911 208.834 66.8743C208.501 67.0533 208.239 67.3026 208.047 67.6222C207.856 67.9418 207.76 68.3104 207.76 68.728V74.5H205.446ZM216.525 74.6918C215.54 74.6918 214.69 74.4872 213.974 74.0781C213.263 73.6648 212.715 73.081 212.332 72.3267C211.948 71.5682 211.756 70.6754 211.756 69.6484C211.756 68.6385 211.948 67.7521 212.332 66.9893C212.719 66.2223 213.261 65.6257 213.955 65.1996C214.65 64.7692 215.466 64.554 216.403 64.554C217.008 64.554 217.579 64.652 218.116 64.848C218.658 65.0398 219.135 65.3381 219.548 65.7429C219.966 66.1477 220.294 66.6634 220.533 67.2898C220.771 67.9119 220.891 68.6534 220.891 69.5142V70.2237H212.843V68.6641H218.672C218.668 68.2209 218.572 67.8267 218.385 67.4815C218.197 67.1321 217.935 66.8572 217.599 66.657C217.266 66.4567 216.878 66.3565 216.435 66.3565C215.962 66.3565 215.547 66.4716 215.189 66.7017C214.831 66.9276 214.552 67.2259 214.351 67.5966C214.155 67.9631 214.055 68.3658 214.051 68.8047V70.1662C214.051 70.7372 214.155 71.2273 214.364 71.6364C214.573 72.0412 214.865 72.3523 215.24 72.5696C215.615 72.7827 216.054 72.8892 216.557 72.8892C216.893 72.8892 217.198 72.8423 217.471 72.7486C217.744 72.6506 217.98 72.5078 218.18 72.3203C218.381 72.1328 218.532 71.9006 218.634 71.6236L220.795 71.8665C220.658 72.4375 220.398 72.9361 220.015 73.3622C219.636 73.7841 219.15 74.1122 218.557 74.3466C217.965 74.5767 217.288 74.6918 216.525 74.6918ZM225.565 72.7102L225.482 73.4134C225.422 73.9503 225.315 74.4957 225.162 75.0497C225.013 75.608 224.855 76.1214 224.689 76.5902C224.523 77.0589 224.389 77.4276 224.286 77.696H222.727C222.786 77.4361 222.867 77.0824 222.97 76.6349C223.076 76.1875 223.178 75.6847 223.276 75.1264C223.374 74.5682 223.44 74.0014 223.475 73.4261L223.519 72.7102H225.565ZM239.434 65.0078C239.374 64.4496 239.123 64.0149 238.68 63.7038C238.241 63.3928 237.67 63.2372 236.967 63.2372C236.472 63.2372 236.048 63.3118 235.695 63.4609C235.341 63.6101 235.07 63.8125 234.883 64.0682C234.695 64.3239 234.599 64.6158 234.595 64.9439C234.595 65.2166 234.657 65.4531 234.78 65.6534C234.908 65.8537 235.081 66.0241 235.298 66.1648C235.516 66.3011 235.756 66.4162 236.021 66.5099C236.285 66.6037 236.551 66.6825 236.82 66.7464L238.047 67.0533C238.541 67.1683 239.016 67.3239 239.472 67.5199C239.932 67.7159 240.344 67.9631 240.706 68.2614C241.072 68.5597 241.362 68.9197 241.575 69.3416C241.788 69.7635 241.895 70.2578 241.895 70.8246C241.895 71.5916 241.699 72.267 241.307 72.8509C240.915 73.4304 240.348 73.8842 239.606 74.2124C238.869 74.5362 237.976 74.6982 236.928 74.6982C235.91 74.6982 235.025 74.5405 234.275 74.2251C233.53 73.9098 232.946 73.4496 232.524 72.8445C232.106 72.2393 231.881 71.5021 231.847 70.6328H234.18C234.214 71.0888 234.354 71.468 234.601 71.7706C234.849 72.0732 235.17 72.299 235.567 72.4482C235.967 72.5973 236.415 72.6719 236.909 72.6719C237.425 72.6719 237.876 72.5952 238.264 72.4418C238.656 72.2841 238.963 72.0668 239.185 71.7898C239.406 71.5085 239.519 71.1804 239.523 70.8054C239.519 70.4645 239.419 70.1832 239.223 69.9616C239.027 69.7358 238.752 69.5483 238.398 69.3991C238.049 69.2457 237.64 69.1094 237.171 68.9901L235.682 68.6065C234.604 68.3295 233.751 67.9098 233.125 67.3473C232.503 66.7805 232.192 66.0284 232.192 65.0909C232.192 64.3196 232.4 63.6442 232.818 63.0646C233.24 62.4851 233.813 62.0355 234.538 61.7159C235.262 61.392 236.082 61.2301 236.998 61.2301C237.927 61.2301 238.741 61.392 239.44 61.7159C240.143 62.0355 240.695 62.4808 241.096 63.0518C241.496 63.6186 241.703 64.2706 241.716 65.0078H239.434ZM246.221 68.7472V74.5H243.907V61.4091H246.169V66.3501H246.285C246.515 65.7962 246.87 65.3594 247.352 65.0398C247.838 64.7159 248.456 64.554 249.206 64.554C249.888 64.554 250.482 64.6967 250.989 64.9822C251.496 65.2678 251.888 65.6854 252.165 66.2351C252.446 66.7848 252.587 67.456 252.587 68.2486V74.5H250.273V68.6065C250.273 67.946 250.103 67.4325 249.762 67.0661C249.425 66.6953 248.952 66.5099 248.343 66.5099C247.934 66.5099 247.567 66.5994 247.243 66.7784C246.924 66.9531 246.672 67.2067 246.489 67.5391C246.31 67.8714 246.221 68.2741 246.221 68.7472ZM257.771 74.6982C257.149 74.6982 256.589 74.5874 256.09 74.3658C255.596 74.1399 255.204 73.8075 254.914 73.3686C254.628 72.9297 254.486 72.3885 254.486 71.745C254.486 71.1911 254.588 70.733 254.792 70.3707C254.997 70.0085 255.276 69.7188 255.63 69.5014C255.983 69.2841 256.382 69.12 256.825 69.0092C257.272 68.8942 257.735 68.8111 258.212 68.7599C258.787 68.7003 259.254 68.647 259.612 68.6001C259.97 68.549 260.23 68.4723 260.392 68.37C260.558 68.2635 260.641 68.0994 260.641 67.8778V67.8395C260.641 67.358 260.498 66.9851 260.213 66.7209C259.927 66.4567 259.516 66.3246 258.979 66.3246C258.412 66.3246 257.963 66.4482 257.63 66.6953C257.302 66.9425 257.081 67.2344 256.966 67.571L254.805 67.2642C254.976 66.6676 255.257 66.169 255.649 65.7685C256.041 65.3636 256.52 65.0611 257.087 64.8608C257.654 64.6562 258.28 64.554 258.966 64.554C259.439 64.554 259.91 64.6094 260.379 64.7202C260.848 64.831 261.276 65.0142 261.664 65.2699C262.052 65.5213 262.363 65.8643 262.597 66.299C262.836 66.7337 262.955 67.277 262.955 67.929V74.5H260.731V73.1513H260.654C260.513 73.424 260.315 73.6797 260.059 73.9183C259.808 74.1527 259.491 74.3423 259.107 74.4872C258.728 74.6278 258.282 74.6982 257.771 74.6982ZM258.372 72.9979C258.836 72.9979 259.239 72.9062 259.58 72.723C259.921 72.5355 260.183 72.2884 260.366 71.9815C260.554 71.6747 260.647 71.3402 260.647 70.978V69.821C260.575 69.8807 260.451 69.9361 260.277 69.9872C260.106 70.0384 259.915 70.0831 259.701 70.1214C259.488 70.1598 259.277 70.1939 259.069 70.2237C258.86 70.2536 258.679 70.2791 258.525 70.3004C258.18 70.3473 257.871 70.424 257.598 70.5305C257.326 70.6371 257.111 70.7862 256.953 70.978C256.795 71.1655 256.716 71.4084 256.716 71.7067C256.716 72.1328 256.872 72.4545 257.183 72.6719C257.494 72.8892 257.89 72.9979 258.372 72.9979ZM265.282 74.5V64.6818H267.525V66.3182H267.628C267.807 65.7514 268.113 65.3146 268.548 65.0078C268.987 64.6967 269.488 64.5412 270.05 64.5412C270.178 64.5412 270.321 64.5476 270.478 64.5604C270.64 64.5689 270.775 64.5838 270.881 64.6051V66.7337C270.783 66.6996 270.628 66.6697 270.415 66.6442C270.206 66.6143 270.003 66.5994 269.807 66.5994C269.385 66.5994 269.006 66.6911 268.669 66.8743C268.337 67.0533 268.075 67.3026 267.883 67.6222C267.691 67.9418 267.596 68.3104 267.596 68.728V74.5H265.282ZM276.361 74.6918C275.376 74.6918 274.526 74.4872 273.81 74.0781C273.099 73.6648 272.551 73.081 272.168 72.3267C271.784 71.5682 271.592 70.6754 271.592 69.6484C271.592 68.6385 271.784 67.7521 272.168 66.9893C272.555 66.2223 273.097 65.6257 273.791 65.1996C274.486 64.7692 275.302 64.554 276.239 64.554C276.844 64.554 277.415 64.652 277.952 64.848C278.494 65.0398 278.971 65.3381 279.384 65.7429C279.802 66.1477 280.13 66.6634 280.369 67.2898C280.607 67.9119 280.726 68.6534 280.726 69.5142V70.2237H272.679V68.6641H278.508C278.504 68.2209 278.408 67.8267 278.221 67.4815C278.033 67.1321 277.771 66.8572 277.435 66.657C277.102 66.4567 276.714 66.3565 276.271 66.3565C275.798 66.3565 275.383 66.4716 275.025 66.7017C274.667 66.9276 274.388 67.2259 274.187 67.5966C273.991 67.9631 273.891 68.3658 273.887 68.8047V70.1662C273.887 70.7372 273.991 71.2273 274.2 71.6364C274.409 72.0412 274.701 72.3523 275.076 72.5696C275.451 72.7827 275.89 72.8892 276.393 72.8892C276.729 72.8892 277.034 72.8423 277.307 72.7486C277.579 72.6506 277.816 72.5078 278.016 72.3203C278.217 72.1328 278.368 71.9006 278.47 71.6236L280.631 71.8665C280.494 72.4375 280.234 72.9361 279.851 73.3622C279.472 73.7841 278.986 74.1122 278.393 74.3466C277.801 74.5767 277.123 74.6918 276.361 74.6918ZM289.974 74.6982C289.352 74.6982 288.792 74.5874 288.293 74.3658C287.799 74.1399 287.407 73.8075 287.117 73.3686C286.831 72.9297 286.689 72.3885 286.689 71.745C286.689 71.1911 286.791 70.733 286.995 70.3707C287.2 70.0085 287.479 69.7188 287.833 69.5014C288.187 69.2841 288.585 69.12 289.028 69.0092C289.476 68.8942 289.938 68.8111 290.415 68.7599C290.991 68.7003 291.457 68.647 291.815 68.6001C292.173 68.549 292.433 68.4723 292.595 68.37C292.761 68.2635 292.844 68.0994 292.844 67.8778V67.8395C292.844 67.358 292.701 66.9851 292.416 66.7209C292.13 66.4567 291.719 66.3246 291.182 66.3246C290.616 66.3246 290.166 66.4482 289.834 66.6953C289.505 66.9425 289.284 67.2344 289.169 67.571L287.008 67.2642C287.179 66.6676 287.46 66.169 287.852 65.7685C288.244 65.3636 288.723 65.0611 289.29 64.8608C289.857 64.6562 290.483 64.554 291.169 64.554C291.642 64.554 292.113 64.6094 292.582 64.7202C293.051 64.831 293.479 65.0142 293.867 65.2699C294.255 65.5213 294.566 65.8643 294.8 66.299C295.039 66.7337 295.158 67.277 295.158 67.929V74.5H292.934V73.1513H292.857C292.716 73.424 292.518 73.6797 292.263 73.9183C292.011 74.1527 291.694 74.3423 291.31 74.4872C290.931 74.6278 290.486 74.6982 289.974 74.6982ZM290.575 72.9979C291.04 72.9979 291.442 72.9062 291.783 72.723C292.124 72.5355 292.386 72.2884 292.569 71.9815C292.757 71.6747 292.851 71.3402 292.851 70.978V69.821C292.778 69.8807 292.655 69.9361 292.48 69.9872C292.309 70.0384 292.118 70.0831 291.905 70.1214C291.691 70.1598 291.481 70.1939 291.272 70.2237C291.063 70.2536 290.882 70.2791 290.728 70.3004C290.383 70.3473 290.074 70.424 289.802 70.5305C289.529 70.6371 289.314 70.7862 289.156 70.978C288.998 71.1655 288.919 71.4084 288.919 71.7067C288.919 72.1328 289.075 72.4545 289.386 72.6719C289.697 72.8892 290.093 72.9979 290.575 72.9979ZM299.799 68.7472V74.5H297.485V64.6818H299.696V66.3501H299.812C300.037 65.8004 300.397 65.3636 300.892 65.0398C301.39 64.7159 302.006 64.554 302.739 64.554C303.417 64.554 304.007 64.6989 304.51 64.9886C305.017 65.2784 305.409 65.6982 305.686 66.2479C305.967 66.7976 306.106 67.4645 306.101 68.2486V74.5H303.787V68.6065C303.787 67.9503 303.617 67.4368 303.276 67.0661C302.939 66.6953 302.473 66.5099 301.876 66.5099C301.471 66.5099 301.111 66.5994 300.796 66.7784C300.485 66.9531 300.24 67.2067 300.061 67.5391C299.886 67.8714 299.799 68.2741 299.799 68.7472ZM312.097 74.6726C311.326 74.6726 310.635 74.4744 310.026 74.0781C309.417 73.6818 308.935 73.1065 308.581 72.3523C308.228 71.598 308.051 70.6818 308.051 69.6037C308.051 68.5128 308.23 67.5923 308.588 66.8423C308.95 66.0881 309.438 65.5192 310.052 65.1357C310.665 64.7479 311.349 64.554 312.103 64.554C312.679 64.554 313.152 64.652 313.522 64.848C313.893 65.0398 314.187 65.272 314.405 65.5447C314.622 65.8132 314.79 66.0668 314.91 66.3054H315.005V61.4091H317.326V74.5H315.05V72.9531H314.91C314.79 73.1918 314.618 73.4453 314.392 73.7138C314.166 73.978 313.868 74.2038 313.497 74.3913C313.126 74.5788 312.66 74.6726 312.097 74.6726ZM312.743 72.7741C313.233 72.7741 313.65 72.642 313.995 72.3778C314.341 72.1094 314.603 71.7365 314.782 71.2592C314.961 70.782 315.05 70.2259 315.05 69.5909C315.05 68.956 314.961 68.4041 314.782 67.9354C314.607 67.4666 314.347 67.1023 314.002 66.8423C313.661 66.5824 313.241 66.4524 312.743 66.4524C312.227 66.4524 311.797 66.5866 311.451 66.8551C311.106 67.1236 310.846 67.4943 310.672 67.9673C310.497 68.4403 310.41 68.9815 310.41 69.5909C310.41 70.2045 310.497 70.7521 310.672 71.2337C310.851 71.7109 311.113 72.0881 311.458 72.3651C311.807 72.6378 312.236 72.7741 312.743 72.7741ZM324.359 74.5V61.4091H332.873V63.397H326.73V66.951H332.432V68.9389H326.73V72.5121H332.924V74.5H324.359ZM338.015 74.6982C337.393 74.6982 336.833 74.5874 336.334 74.3658C335.84 74.1399 335.448 73.8075 335.158 73.3686C334.872 72.9297 334.73 72.3885 334.73 71.745C334.73 71.1911 334.832 70.733 335.036 70.3707C335.241 70.0085 335.52 69.7188 335.874 69.5014C336.228 69.2841 336.626 69.12 337.069 69.0092C337.517 68.8942 337.979 68.8111 338.456 68.7599C339.032 68.7003 339.498 68.647 339.856 68.6001C340.214 68.549 340.474 68.4723 340.636 68.37C340.802 68.2635 340.885 68.0994 340.885 67.8778V67.8395C340.885 67.358 340.742 66.9851 340.457 66.7209C340.171 66.4567 339.76 66.3246 339.223 66.3246C338.657 66.3246 338.207 66.4482 337.875 66.6953C337.546 66.9425 337.325 67.2344 337.21 67.571L335.049 67.2642C335.22 66.6676 335.501 66.169 335.893 65.7685C336.285 65.3636 336.764 65.0611 337.331 64.8608C337.898 64.6562 338.524 64.554 339.21 64.554C339.684 64.554 340.154 64.6094 340.623 64.7202C341.092 64.831 341.52 65.0142 341.908 65.2699C342.296 65.5213 342.607 65.8643 342.841 66.299C343.08 66.7337 343.199 67.277 343.199 67.929V74.5H340.975V73.1513H340.898C340.757 73.424 340.559 73.6797 340.304 73.9183C340.052 74.1527 339.735 74.3423 339.351 74.4872C338.972 74.6278 338.527 74.6982 338.015 74.6982ZM338.616 72.9979C339.081 72.9979 339.483 72.9062 339.824 72.723C340.165 72.5355 340.427 72.2884 340.61 71.9815C340.798 71.6747 340.892 71.3402 340.892 70.978V69.821C340.819 69.8807 340.696 69.9361 340.521 69.9872C340.35 70.0384 340.159 70.0831 339.946 70.1214C339.733 70.1598 339.522 70.1939 339.313 70.2237C339.104 70.2536 338.923 70.2791 338.769 70.3004C338.424 70.3473 338.115 70.424 337.843 70.5305C337.57 70.6371 337.355 70.7862 337.197 70.978C337.039 71.1655 336.96 71.4084 336.96 71.7067C336.96 72.1328 337.116 72.4545 337.427 72.6719C337.738 72.8892 338.134 72.9979 338.616 72.9979ZM345.526 74.5V64.6818H347.769V66.3182H347.872C348.051 65.7514 348.358 65.3146 348.792 65.0078C349.231 64.6967 349.732 64.5412 350.294 64.5412C350.422 64.5412 350.565 64.5476 350.723 64.5604C350.884 64.5689 351.019 64.5838 351.125 64.6051V66.7337C351.027 66.6996 350.872 66.6697 350.659 66.6442C350.45 66.6143 350.247 66.5994 350.051 66.5994C349.63 66.5994 349.25 66.6911 348.914 66.8743C348.581 67.0533 348.319 67.3026 348.127 67.6222C347.936 67.9418 347.84 68.3104 347.84 68.728V74.5H345.526ZM354.976 68.7472V74.5H352.663V64.6818H354.874V66.3501H354.989C355.215 65.8004 355.575 65.3636 356.07 65.0398C356.568 64.7159 357.184 64.554 357.917 64.554C358.594 64.554 359.185 64.6989 359.687 64.9886C360.195 65.2784 360.587 65.6982 360.864 66.2479C361.145 66.7976 361.283 67.4645 361.279 68.2486V74.5H358.965V68.6065C358.965 67.9503 358.795 67.4368 358.454 67.0661C358.117 66.6953 357.65 66.5099 357.054 66.5099C356.649 66.5099 356.289 66.5994 355.974 66.7784C355.663 66.9531 355.418 67.2067 355.239 67.5391C355.064 67.8714 354.976 68.2741 354.976 68.7472Z" fill="black"/>
</svg>
