<svg width="25" height="24" viewBox="0 0 25 24" fill="none" xmlns="http://www.w3.org/2000/svg">
<rect x="0.5" width="24" height="24" rx="12" fill="#0033F1"/>
<path d="M15.178 5.3335H9.798C8.74676 5.33473 7.73895 5.75292 6.99568 6.49632C6.25241 7.23972 5.83439 8.2476 5.83333 9.29883L5.83333 14.6788C5.83456 15.7301 6.25276 16.7379 6.99615 17.4811C7.73955 18.2244 8.74743 18.6424 9.79866 18.6435H15.1787C16.2299 18.6423 17.2377 18.2241 17.981 17.4807C18.7242 16.7373 19.1423 15.7294 19.1433 14.6782V9.29816C19.1421 8.24693 18.7239 7.23912 17.9805 6.49585C17.2371 5.75258 16.2292 5.33455 15.178 5.3335V5.3335ZM17.8047 14.6782C17.8047 15.0231 17.7367 15.3647 17.6047 15.6833C17.4727 16.002 17.2792 16.2916 17.0353 16.5355C16.7914 16.7794 16.5019 16.9729 16.1832 17.1049C15.8645 17.2369 15.5229 17.3048 15.178 17.3048H9.798C9.10148 17.3047 8.43354 17.0278 7.94109 16.5353C7.44864 16.0427 7.17199 15.3747 7.17199 14.6782V9.29816C7.17217 8.60164 7.44899 7.93371 7.94156 7.44126C8.43414 6.94881 9.10214 6.67216 9.79866 6.67216H15.1787C15.8752 6.67234 16.5431 6.94915 17.0356 7.44173C17.528 7.93431 17.8047 8.60231 17.8047 9.29883V14.6788V14.6782Z" fill="white"/>
<path d="M12.488 8.5459C11.5756 8.54731 10.701 8.91042 10.0559 9.55564C9.41084 10.2008 9.0479 11.0755 9.04666 11.9879C9.04772 12.9005 9.41068 13.7755 10.0559 14.4208C10.7012 15.0662 11.576 15.4293 12.4887 15.4306C13.4014 15.4295 14.2764 15.0665 14.9218 14.4211C15.5672 13.7757 15.9303 12.9006 15.9313 11.9879C15.9299 11.0753 15.5666 10.2005 14.9211 9.55536C14.2756 8.91023 13.4006 8.54745 12.488 8.54657V8.5459ZM12.488 14.0919C11.9302 14.0919 11.3952 13.8703 11.0007 13.4758C10.6063 13.0814 10.3847 12.5464 10.3847 11.9886C10.3847 11.4307 10.6063 10.8957 11.0007 10.5013C11.3952 10.1068 11.9302 9.88523 12.488 9.88523C13.0458 9.88523 13.5808 10.1068 13.9753 10.5013C14.3697 10.8957 14.5913 11.4307 14.5913 11.9886C14.5913 12.5464 14.3697 13.0814 13.9753 13.4758C13.5808 13.8703 13.0458 14.0919 12.488 14.0919Z" fill="white"/>
<path d="M15.9373 9.39689C16.3928 9.39689 16.762 9.02768 16.762 8.57223C16.762 8.11677 16.3928 7.74756 15.9373 7.74756C15.4819 7.74756 15.1127 8.11677 15.1127 8.57223C15.1127 9.02768 15.4819 9.39689 15.9373 9.39689Z" fill="white"/>
</svg>
