<svg width="25" height="24" viewBox="0 0 25 24" fill="none" xmlns="http://www.w3.org/2000/svg">
<rect x="0.5" width="24" height="24" rx="12" fill="#0033F1"/>
<path d="M19.1393 13.1459V18.0653H16.2873V13.4753C16.2873 12.3219 15.8747 11.5353 14.8427 11.5353C14.0547 11.5353 13.5853 12.0659 13.3793 12.5786C13.304 12.7619 13.2847 13.0173 13.2847 13.2739V18.0653H10.4313C10.4313 18.0653 10.47 10.2919 10.4313 9.48592H13.2847V10.7019L13.266 10.7299H13.2847V10.7019C13.6633 10.1186 14.34 9.28459 15.8553 9.28459C17.732 9.28459 19.1393 10.5113 19.1393 13.1459ZM7.44734 5.35059C6.47201 5.35059 5.83334 5.99059 5.83334 6.83259C5.83334 7.65592 6.45334 8.31525 7.41001 8.31525H7.42868C8.42401 8.31525 9.04201 7.65592 9.04201 6.83259C9.02468 5.99059 8.42468 5.35059 7.44801 5.35059H7.44734ZM6.00268 18.0653H8.85468V9.48592H6.00268V18.0653Z" fill="#F5F5F6"/>
</svg>
