<svg width="210" height="57" viewBox="0 0 210 57" fill="none" xmlns="http://www.w3.org/2000/svg">
<path d="M40.6552 25.6814L45 21.0262L40.6552 16.3711L36 21.0262L40.6552 25.6814Z" fill="white"/>
<path d="M28.4043 19.4805L21.02 22.049L17.4883 23.9753L18.1304 36.8177L28.7253 45.8073L38.6782 36.8177L38.9992 23.9753L28.4043 19.4805Z" fill="white"/>
<path fill-rule="evenodd" clip-rule="evenodd" d="M32.6738 8.3125H24.3263C22.4366 8.3125 20.6244 9.06315 19.2882 10.3994L17.6591 12.0284C16.9768 12.7107 16.163 13.2473 15.2671 13.6056L9.22885 16.021C6.5238 17.103 4.75 19.7229 4.75 22.6364V41.5625C4.75 45.4976 7.93995 48.6875 11.875 48.6875H45.125C49.0601 48.6875 52.25 45.4976 52.25 41.5625V22.6364C52.25 19.7229 50.476 17.103 47.7711 16.021L41.7328 13.6056C40.8369 13.2473 40.0232 12.7107 39.3409 12.0284L37.7118 10.3994C36.3756 9.06315 34.5634 8.3125 32.6738 8.3125ZM39.6549 23.8484C39.3374 22.8963 38.5903 22.1492 37.6382 21.8318C36.6691 21.5088 36.6691 20.1381 37.6382 19.8151C38.5903 19.4977 39.3374 18.7506 39.6549 17.7985C39.9779 16.8295 41.3485 16.8295 41.6715 17.7985C41.9889 18.7506 42.7361 19.4977 43.6882 19.8151C44.6572 20.1381 44.6572 21.5088 43.6882 21.8318C42.7361 22.1492 41.9889 22.8963 41.6715 23.8484C41.3485 24.8174 39.9779 24.8174 39.6549 23.8484ZM26.847 20.5923C27.9081 20.1672 29.0919 20.1672 30.153 20.5923L34.1824 22.2066C34.195 22.2117 34.2074 22.217 34.2197 22.2224L35.9393 22.9851C37.4473 23.6541 38.5001 25.127 38.5 26.8422C38.4998 29.028 38.3423 32.7277 37.3146 35.2661C36.6314 36.954 35.4007 38.4169 34.1499 39.586C32.8902 40.7634 31.5482 41.7 30.5611 42.3232C29.2961 43.122 27.7039 43.122 26.4389 42.3232C25.4518 41.7 24.1098 40.7634 22.85 39.586C21.5993 38.4169 20.3687 36.954 19.6854 35.2661C18.6578 32.7277 18.5002 29.028 18.5 26.8422C18.4999 25.127 19.5527 23.6541 21.0607 22.9851L22.7803 22.2224C22.7926 22.217 22.805 22.2117 22.8176 22.2066L26.847 20.5923ZM29.3265 22.6551C28.796 22.4425 28.204 22.4425 27.6735 22.6551L23.6628 24.2619L21.9618 25.0165C21.1965 25.356 20.7222 26.0701 20.7222 26.842C20.7224 29.0429 20.8983 32.3401 21.7453 34.4323C22.2586 35.7003 23.2348 36.9038 24.3675 37.9626C25.4913 39.013 26.7094 39.8658 27.6254 40.4442C28.1657 40.7854 28.8343 40.7854 29.3746 40.4442C30.2906 39.8658 31.5087 39.013 32.6325 37.9626C33.7652 36.9038 34.7414 35.7003 35.2547 34.4323C36.1017 32.3401 36.2776 29.0429 36.2778 26.842C36.2779 26.0701 35.8035 25.356 35.0382 25.0165L33.3372 24.2619L29.3265 22.6551ZM31.4956 29.2302C31.9296 29.6641 31.9296 30.3676 31.4956 30.8015L28.5558 33.7413C28.1219 34.1752 27.4184 34.1752 26.9845 33.7413L25.8856 32.6424C25.4517 32.2085 25.4517 31.505 25.8856 31.0711C26.3195 30.6372 27.023 30.6372 27.4569 31.0711L27.7701 31.3843L29.9243 29.2302C30.3582 28.7962 31.0617 28.7962 31.4956 29.2302Z" fill="url(#paint0_linear_5225_5964)"/>
<path d="M73.674 21.447V25.4417H66.453V28.617H71.779V32.4324H66.453V39.5H61.434V21.447H73.674ZM99.992 35.2236V39.5H97.8155C94.145 39.5 92.31 37.6819 92.31 34.0457V29.3084H90.543V25.1344H92.31V21.6519H97.3545V25.1344H99.9665V29.3084H97.3545V34.1225C97.3545 34.5151 97.44 34.7968 97.6105 34.9675C97.7985 35.1382 98.106 35.2236 98.5325 35.2236H99.992ZM123.041 35.6589H128.65V39.5H118.022V21.447H123.041V35.6589ZM145.51 32.3044C145.51 30.8192 145.817 29.5218 146.432 28.4121C147.046 27.3025 147.9 26.4489 148.992 25.8514C150.102 25.2539 151.366 24.9552 152.782 24.9552C154.609 24.9552 156.145 25.4588 157.391 26.466C158.637 27.4561 159.44 28.8475 159.798 30.64H154.472C154.165 29.701 153.567 29.2316 152.68 29.2316C152.048 29.2316 151.545 29.4962 151.169 30.0254C150.811 30.5375 150.631 31.2972 150.631 32.3044C150.631 33.3116 150.811 34.0798 151.169 34.609C151.545 35.1382 152.048 35.4029 152.68 35.4029C153.584 35.4029 154.182 34.9334 154.472 33.9945H159.798C159.44 35.7699 158.637 37.1612 157.391 38.1684C156.145 39.1756 154.609 39.6792 152.782 39.6792C151.366 39.6792 150.102 39.3805 148.992 38.783C147.9 38.1855 147.046 37.3319 146.432 36.2223C145.817 35.1126 145.51 33.8067 145.51 32.3044ZM171.128 39.5L167.158 33.6104V39.5H162.139V20.5508H167.158V30.768L171.128 25.1344H177.145L171.486 32.3556L177.247 39.5H171.128ZM192.701 32.1508C192.701 32.5434 192.675 32.936 192.624 33.3287H183.124C183.175 34.114 183.388 34.7029 183.764 35.0956C184.157 35.4711 184.651 35.6589 185.249 35.6589C186.085 35.6589 186.683 35.2834 187.042 34.5322H192.393C192.172 35.5224 191.736 36.4101 191.088 37.1953C190.455 37.9636 189.653 38.5696 188.68 39.0134C187.707 39.4573 186.632 39.6792 185.454 39.6792C184.037 39.6792 182.773 39.3805 181.664 38.783C180.572 38.1855 179.709 37.3319 179.077 36.2223C178.463 35.1126 178.156 33.8067 178.156 32.3044C178.156 30.8021 178.463 29.5047 179.077 28.4121C179.692 27.3025 180.546 26.4489 181.639 25.8514C182.748 25.2539 184.02 24.9552 185.454 24.9552C186.871 24.9552 188.126 25.2454 189.218 25.8258C190.311 26.4063 191.164 27.2428 191.779 28.3353C192.393 29.4108 192.701 30.6826 192.701 32.1508ZM187.579 30.896C187.579 30.2815 187.374 29.8035 186.964 29.462C186.555 29.1035 186.042 28.9243 185.428 28.9243C184.813 28.9243 184.31 29.095 183.917 29.4364C183.524 29.7608 183.269 30.2473 183.149 30.896H187.579ZM200.029 27.6695C200.593 26.8501 201.276 26.2014 202.078 25.7234C202.881 25.2454 203.743 25.0064 204.664 25.0064V30.3583H203.256C202.163 30.3583 201.353 30.5717 200.823 30.9984C200.294 31.4252 200.029 32.1678 200.029 33.2263V39.5H195.011V25.1344H200.029V27.6695Z" fill="#0E0D2F"/>
<path d="M109 38.8155C112.625 38.8155 115.563 35.8768 115.563 32.2517C115.563 28.6267 112.625 25.688 109 25.688C105.374 25.688 102.436 28.6267 102.436 32.2517C102.436 35.8768 105.374 38.8155 109 38.8155Z" stroke="#0E0D2F" stroke-width="1.3275"/>
<path d="M108.998 37.3534C111.815 37.3534 114.099 35.0695 114.099 32.2521C114.099 29.4348 111.815 27.1509 108.998 27.1509C106.181 27.1509 103.897 29.4348 103.897 32.2521C103.897 35.0695 106.181 37.3534 108.998 37.3534Z" stroke="#0E0D2F" stroke-width="2.23746"/>
<path d="M111.437 32.2441C111.718 32.2614 111.964 32.046 111.931 31.7663C111.895 31.4786 111.816 31.1969 111.694 30.9317C111.501 30.5113 111.206 30.1455 110.837 29.8667C110.468 29.5879 110.035 29.4049 109.578 29.3339C109.29 29.2892 108.997 29.2899 108.711 29.3352C108.432 29.3792 108.293 29.6756 108.386 29.9412C108.48 30.2069 108.773 30.3382 109.055 30.3234C109.177 30.3169 109.3 30.3231 109.422 30.342C109.712 30.3871 109.988 30.5035 110.222 30.6808C110.457 30.8581 110.645 31.0908 110.768 31.3581C110.819 31.4702 110.859 31.5868 110.886 31.7062C110.949 31.9808 111.155 32.2268 111.437 32.2441Z" fill="#0E0D2F"/>
<path d="M80.9 38.8155C84.5251 38.8155 87.4638 35.8768 87.4638 32.2517C87.4638 28.6267 84.5251 25.688 80.9 25.688C77.2749 25.688 74.3363 28.6267 74.3363 32.2517C74.3363 35.8768 77.2749 38.8155 80.9 38.8155Z" stroke="#0E0D2F" stroke-width="1.3275"/>
<path d="M80.8985 37.3534C83.7158 37.3534 85.9997 35.0695 85.9997 32.2521C85.9997 29.4348 83.7158 27.1509 80.8985 27.1509C78.0812 27.1509 75.7972 29.4348 75.7972 32.2521C75.7972 35.0695 78.0812 37.3534 80.8985 37.3534Z" stroke="#0E0D2F" stroke-width="2.23746"/>
<path d="M83.3365 32.2441C83.618 32.2614 83.8645 32.046 83.831 31.7663C83.796 31.4786 83.7165 31.1969 83.5945 30.9317C83.401 30.5113 83.1065 30.1455 82.737 29.8667C82.368 29.5879 81.9355 29.4049 81.478 29.3339C81.1895 29.2892 80.897 29.2899 80.6105 29.3352C80.3325 29.3792 80.193 29.6756 80.2865 29.9412C80.38 30.2069 80.6735 30.3382 80.9545 30.3234C81.077 30.3169 81.2 30.3231 81.322 30.342C81.6125 30.3871 81.8875 30.5035 82.1225 30.6808C82.3575 30.8581 82.5445 31.0908 82.6675 31.3581C82.7195 31.4702 82.759 31.5868 82.786 31.7062C82.849 31.9808 83.0555 32.2268 83.3365 32.2441Z" fill="#0E0D2F"/>
<path fill-rule="evenodd" clip-rule="evenodd" d="M133.167 31.2143V29.1429C133.167 26.8548 135.107 25 137.5 25C139.893 25 141.833 26.8548 141.833 29.1429V31.2143C143.03 31.2143 144 32.1417 144 33.2857V37.4286C144 38.5726 143.03 39.5 141.833 39.5H133.167C131.97 39.5 131 38.5726 131 37.4286V33.2857C131 32.1417 131.97 31.2143 133.167 31.2143ZM134.611 29.1429C134.611 27.6175 135.905 26.381 137.5 26.381C139.095 26.381 140.389 27.6175 140.389 29.1429V31.2143H134.611V29.1429ZM137.5 33.9762C137.899 33.9762 138.222 34.2853 138.222 34.6666V36.0476C138.222 36.4289 137.899 36.7381 137.5 36.7381C137.101 36.7381 136.778 36.4289 136.778 36.0476V34.6666C136.778 34.2853 137.101 33.9762 137.5 33.9762Z" fill="#0E0D2F"/>
<defs>
<linearGradient id="paint0_linear_5225_5964" x1="12.75" y1="16" x2="49.25" y2="48.5" gradientUnits="userSpaceOnUse">
<stop stop-color="#0033F1"/>
<stop offset="0.495245" stop-color="#0268F8"/>
<stop offset="1" stop-color="#029CFF"/>
</linearGradient>
</defs>
</svg>
